<?xml version="1.0" encoding="UTF-8"?>
<svg id="Layer_1" data-name="Layer 1" xmlns="http://www.w3.org/2000/svg" viewBox="0 0 558.8 575.53">
  <defs>
    <style>
      .cls-1 {
        fill: #fff;
      }

      .cls-2 {
        fill: none;
      }
    </style>
  </defs>
  <path class="cls-2" d="m361.85,247.73h-163.18v-118.32c-12.5,7.43-23.62,13.65-34.18,20.7-1.92,1.28-2.15,5.97-2.15,9.09-.05,95.05.02,190.1.07,285.16,0,3.91,0,7.82,0,13.82-22.67-1.05-44.65.19-65.73-3.58-32.06-5.73-57.49-36.2-57.98-68.73-1.01-67.75-.56-135.52-.26-203.28.01-3.13,3.82-7.35,6.96-9.19,52.56-30.93,105.3-61.54,157.98-92.26,23.56-13.74,47.19-27.37,70.54-41.46,5.23-3.16,9.02-3.03,14.13.04,22.58,13.58,45.51,26.58,68.03,40.26,3,1.82,6.18,6.33,6.21,9.62.38,51.2.26,102.41.22,153.61,0,1.18-.33,2.36-.66,4.5Z"/>
  <path class="cls-2" d="m399.46,105.23c8.12,4.64,15.23,8.65,22.29,12.75,31.26,18.16,62.43,36.49,93.84,54.4,5.84,3.33,7.84,7.22,7.82,13.83-.22,63.77.08,127.55-.18,191.32-.19,47.08-33.22,79.64-80.15,79.71-14.33.02-28.66,0-43.62,0V105.23Z"/>
  <path class="cls-1" d="m198.56,539.59h123.47v35.42c-3.1.15-6.34.45-9.59.45-64.99.02-129.98.14-194.97-.04-66.73-.19-116.15-49.67-116.3-116.41-.16-70.51.06-141.02-.22-211.53-.03-6.52,2.35-9.83,7.65-12.91,88.25-51.17,176.43-102.45,264.52-153.88,4.79-2.8,8.21-3.14,13.22-.22,87.82,51.34,175.73,102.51,263.77,153.46,6.35,3.68,8.72,7.66,8.69,15.06-.3,70.2-.09,140.41-.21,210.61-.11,66.47-49.28,115.67-115.61,115.86-26.62.08-53.24.01-81.02.01v-208.6h-163.41v172.7Zm162.57-209.57c.32-2.15.66-3.32.66-4.5.04-51.21.16-102.41-.22-153.61-.02-3.29-3.2-7.8-6.21-9.62-22.52-13.68-45.45-26.69-68.03-40.26-5.11-3.07-8.9-3.2-14.13-.04-23.35,14.09-46.98,27.72-70.54,41.46-52.68,30.72-105.43,61.33-157.98,92.26-3.14,1.85-6.95,6.06-6.96,9.19-.31,67.76-.76,135.53.26,203.28.49,32.53,25.92,63,57.98,68.73,21.09,3.77,43.07,2.53,65.73,3.58,0-6,0-9.91,0-13.82-.05-95.05-.12-190.1-.07-285.16,0-3.12.24-7.81,2.15-9.09,10.56-7.05,21.69-13.27,34.18-20.7v118.32h163.18Zm37.6-142.51v352.02c14.96,0,29.29.02,43.62,0,46.93-.07,79.97-32.63,80.15-79.71.25-63.77-.04-127.55.18-191.32.02-6.62-1.98-10.51-7.82-13.83-31.41-17.91-62.57-36.24-93.84-54.4-7.06-4.1-14.18-8.11-22.29-12.75Z"/>
  <path class="cls-1" d="m0,194.8c1.24-36.77-.75-71.39,4.29-104.95C11.84,39.61,60.1.71,111.45.45c112.52-.57,225.06-.68,337.57.16,60.24.45,108.75,50.41,109.51,110.49.34,26.85.06,53.72.06,82.47-12.14-6.96-22.82-12.77-33.07-19.27-1.89-1.19-2.78-5.16-2.82-7.86-.29-19,.48-38.05-.43-57.01-1.73-36.15-27.28-65.01-62.77-71.75-5.67-1.08-11.58-1.17-17.39-1.17-107.93-.07-215.85-.13-323.78-.04-48.09.04-80.94,33.02-80.97,80.9,0,15.94-.12,31.89.2,47.83.1,5.08-1,8.45-5.84,11.04-9.87,5.29-19.37,11.26-31.73,18.55Z"/>
</svg>